<?xml version="1.0" encoding="UTF-8" standalone="no"?>
<!-- Created with Inkscape (http://www.inkscape.org/) -->

<svg
   xmlns:dc="http://purl.org/dc/elements/1.1/"
   xmlns:cc="http://creativecommons.org/ns#"
   xmlns:rdf="http://www.w3.org/1999/02/22-rdf-syntax-ns#"
   xmlns:svg="http://www.w3.org/2000/svg"
   xmlns="http://www.w3.org/2000/svg"
   xmlns:sodipodi="http://sodipodi.sourceforge.net/DTD/sodipodi-0.dtd"
   xmlns:inkscape="http://www.inkscape.org/namespaces/inkscape"
   id="svg4136"
   version="1.1"
   inkscape:version="0.91 r13725"
   width="50"
   height="50"
   viewBox="0 0 50 50"
   sodipodi:docname="appIcon.svg"
   inkscape:export-filename="U:\jfredrickson\Development\GA-iOS\Sizzle\assets\icon.png"
   inkscape:export-xdpi="3600"
   inkscape:export-ydpi="3600">
  <metadata
     id="metadata4142">
    <rdf:RDF>
      <cc:Work
         rdf:about="">
        <dc:format>image/svg+xml</dc:format>
        <dc:type
           rdf:resource="http://purl.org/dc/dcmitype/StillImage" />
        <dc:title></dc:title>
      </cc:Work>
    </rdf:RDF>
  </metadata>
  <defs
     id="defs4140" />
  <sodipodi:namedview
     pagecolor="#f8c323"
     bordercolor="#666666"
     borderopacity="1"
     objecttolerance="10"
     gridtolerance="10"
     guidetolerance="10"
     inkscape:pageopacity="1"
     inkscape:pageshadow="2"
     inkscape:window-width="1920"
     inkscape:window-height="1017"
     id="namedview4138"
     showgrid="false"
     inkscape:zoom="17"
     inkscape:cx="23.408369"
     inkscape:cy="25"
     inkscape:window-x="1912"
     inkscape:window-y="-8"
     inkscape:window-maximized="1"
     inkscape:current-layer="svg4136"
     borderlayer="false"
     showborder="true" />
  <path
     style="fill:#666666;fill-opacity:1"
     d="M 14.132353,39.875927 C 12.179214,39.068055 10.943544,37.045348 9.7039469,32.62693 9.0132818,30.165124 8.5591571,27.971374 8.694781,27.75193 c 0.1356239,-0.219444 6.877872,-0.398989 14.982773,-0.398989 12.226797,0 14.7823,0.120178 15.007,0.705735 0.225627,0.587974 0.627318,0.548037 2.407315,-0.23934 3.145985,-1.391618 8.58235,-2.537559 11.225885,-2.366324 2.30048,0.149014 2.314071,0.160559 2.228071,1.892648 -0.116345,2.343275 -1.803102,3.707897 -5.476567,4.43066 -1.767337,0.347728 -4.231157,1.373951 -6.186905,2.576951 -2.003114,1.232136 -3.860516,1.999216 -4.841306,1.999389 -1.169722,2.06e-4 -1.678293,0.27435 -1.919644,1.034779 -0.180585,0.568974 -1.039497,1.468133 -1.908693,1.998131 -1.407313,0.858118 -2.538455,0.960367 -10.330357,0.933809 -4.8125,-0.0164 -9.2,-0.215957 -9.75,-0.443452 z m 19.368176,-2.508624 c 0.864109,-0.679708 1.505813,-1.99195 2.067429,-4.227757 0.447918,-1.783166 0.814395,-3.36463 0.814395,-3.514363 0,-0.149733 -5.752662,-0.272242 -12.783694,-0.272242 -11.934775,0 -12.767454,0.05811 -12.539143,0.875 0.134503,0.48125 0.6029,2.158257 1.040883,3.726683 1.19863,4.292322 1.477595,4.398317 11.575778,4.398317 7.772586,0 8.688083,-0.09185 9.824352,-0.985638 z m 8.162865,-4.543523 c 1.248588,-1.172988 5.704468,-2.970839 7.363069,-2.970839 1.294183,0 3.35589,-1.289888 3.35589,-2.09958 0,-0.953151 -5.734069,-0.01541 -10.02555,1.639556 -3.901928,1.504742 -4.97445,2.486844 -4.97445,4.555074 0,0.830269 3.054372,0.02819 4.281041,-1.124211 z M 14.064718,24.606985 c -0.651282,-1.697214 0.875637,-4.813098 4.057958,-8.280815 2.755232,-3.002325 3.238729,-3.820806 3.600822,-6.095607 0.287775,-1.8079043 0.650759,-2.6276218 1.163554,-2.6276218 0.563332,0 0.72705,0.562205 0.670549,2.3026611 -0.09743,3.0011707 -1.082835,4.8165627 -4.401549,8.1088707 -2.500432,2.480536 -2.967751,3.31679 -3.379231,6.047035 -0.18855,1.251061 -1.304865,1.606721 -1.712103,0.545477 z m 8.047585,0.213514 c -0.74212,-1.200776 0.404151,-4.154479 2.483571,-6.399651 2.433892,-2.627897 3.286479,-4.056155 3.286479,-5.505528 0,-1.22083 0.896352,-1.866027 1.606218,-1.156161 1.051708,1.051708 -0.107263,4.084348 -2.622202,6.861431 -1.353734,1.494841 -2.597731,3.339896 -2.764437,4.100122 -0.494152,2.253469 -0.663137,2.632229 -1.174378,2.632229 -0.267401,0 -0.634264,-0.239599 -0.815251,-0.532442 z m 7.1138,0.209525 c -0.827729,-0.827728 -0.208448,-2.823966 1.44321,-4.652153 0.982828,-1.087873 1.955266,-2.607271 2.160973,-3.37644 0.543968,-2.033974 1.822316,-1.825491 1.722427,0.280907 -0.05377,1.133853 -0.588901,2.204821 -1.647343,3.296855 -0.862236,0.889602 -1.738665,2.256713 -1.94762,3.038023 -0.386237,1.444197 -1.109867,2.034588 -1.731647,1.412808 z"
     id="path4146"
     inkscape:connector-curvature="0" />
</svg>
