<?xml version="1.0" encoding="UTF-8" standalone="no"?>
<!-- Created with Inkscape (http://www.inkscape.org/) -->

<svg
   xmlns:dc="http://purl.org/dc/elements/1.1/"
   xmlns:cc="http://creativecommons.org/ns#"
   xmlns:rdf="http://www.w3.org/1999/02/22-rdf-syntax-ns#"
   xmlns:svg="http://www.w3.org/2000/svg"
   xmlns="http://www.w3.org/2000/svg"
   xmlns:sodipodi="http://sodipodi.sourceforge.net/DTD/sodipodi-0.dtd"
   xmlns:inkscape="http://www.inkscape.org/namespaces/inkscape"
   id="svg4136"
   version="1.1"
   inkscape:version="0.91 r13725"
   width="50"
   height="50"
   viewBox="0 0 50 50"
   sodipodi:docname="icon.svg"
   inkscape:export-filename="U:\jfredrickson\Development\GA-iOS\Sizzle\assets\icon.png"
   inkscape:export-xdpi="3600"
   inkscape:export-ydpi="3600">
  <metadata
     id="metadata4142">
    <rdf:RDF>
      <cc:Work
         rdf:about="">
        <dc:format>image/svg+xml</dc:format>
        <dc:type
           rdf:resource="http://purl.org/dc/dcmitype/StillImage" />
      </cc:Work>
    </rdf:RDF>
  </metadata>
  <defs
     id="defs4140" />
  <sodipodi:namedview
     pagecolor="#ffffff"
     bordercolor="#666666"
     borderopacity="1"
     objecttolerance="10"
     gridtolerance="10"
     guidetolerance="10"
     inkscape:pageopacity="0"
     inkscape:pageshadow="2"
     inkscape:window-width="1920"
     inkscape:window-height="1017"
     id="namedview4138"
     showgrid="false"
     inkscape:zoom="17"
     inkscape:cx="24.882353"
     inkscape:cy="25"
     inkscape:window-x="1912"
     inkscape:window-y="-8"
     inkscape:window-maximized="1"
     inkscape:current-layer="svg4136" />
  <path
     style="fill:#000000"
     d="M 7.25,40.522986 C 5.296861,39.715114 4.0611908,37.692407 2.8215939,33.273989 2.1309288,30.812183 1.6768041,28.618433 1.812428,28.398989 1.9480519,28.179545 8.6903,28 16.795201,28 c 12.226797,0 14.7823,0.120178 15.007,0.705735 0.225627,0.587974 0.627318,0.548037 2.407315,-0.23934 3.145985,-1.391618 8.58235,-2.537559 11.225885,-2.366324 2.30048,0.149014 2.314071,0.160559 2.228071,1.892648 -0.116345,2.343275 -1.803102,3.707897 -5.476567,4.43066 C 40.419568,32.771107 37.955748,33.79733 36,35.00033 c -2.003114,1.232136 -3.860516,1.999216 -4.841306,1.999389 -1.169722,2.06e-4 -1.678293,0.27435 -1.919644,1.034779 -0.180585,0.568974 -1.039497,1.468133 -1.908693,1.998131 C 25.923044,40.890747 24.791902,40.992996 17,40.966438 12.1875,40.950038 7.8,40.750481 7.25,40.522986 Z m 19.368176,-2.508624 c 0.864109,-0.679708 1.505813,-1.99195 2.067429,-4.227757 C 29.133523,32.003439 29.5,30.421975 29.5,30.272242 29.5,30.122509 23.747338,30 16.716306,30 4.7815308,30 3.9488521,30.058105 4.1771631,30.875 4.311666,31.35625 4.7800633,33.033257 5.218046,34.601683 6.416676,38.894005 6.695641,39 16.793824,39 c 7.772586,0 8.688083,-0.09185 9.824352,-0.985638 z m 8.162865,-4.543523 C 36.029629,32.297851 40.485509,30.5 42.14411,30.5 43.438293,30.5 45.5,29.210112 45.5,28.40042 45.5,27.447269 39.765931,28.385006 35.47445,30.039976 31.572522,31.544718 30.5,32.52682 30.5,34.59505 c 0,0.830269 3.054372,0.02819 4.281041,-1.124211 z M 7.182365,25.254044 C 6.531083,23.55683 8.058002,20.440946 11.240323,16.973229 13.995555,13.970904 14.479052,13.152423 14.841145,10.877622 15.12892,9.0697175 15.491904,8.25 16.004699,8.25 c 0.563332,0 0.72705,0.562205 0.670549,2.302661 -0.09743,3.001171 -1.082835,4.816563 -4.401549,8.108871 -2.500432,2.480536 -2.967751,3.31679 -3.379231,6.047035 -0.18855,1.251061 -1.304865,1.606721 -1.712103,0.545477 z m 8.047585,0.213514 C 14.48783,24.266782 15.634101,21.313079 17.713521,19.067907 20.147413,16.44001 21,15.011752 21,13.562379 c 0,-1.22083 0.896352,-1.866027 1.606218,-1.156161 1.051708,1.051708 -0.107263,4.084348 -2.622202,6.861431 -1.353734,1.494841 -2.597731,3.339896 -2.764437,4.100122 C 16.725427,25.62124 16.556442,26 16.045201,26 15.7778,26 15.410937,25.760401 15.22995,25.467558 Z m 7.1138,0.209525 c -0.827729,-0.827728 -0.208448,-2.823966 1.44321,-4.652153 0.982828,-1.087873 1.955266,-2.607271 2.160973,-3.37644 0.543968,-2.033974 1.822316,-1.825491 1.722427,0.280907 -0.05377,1.133853 -0.588901,2.204821 -1.647343,3.296855 -0.862236,0.889602 -1.738665,2.256713 -1.94762,3.038023 -0.386237,1.444197 -1.109867,2.034588 -1.731647,1.412808 z"
     id="path4146"
     inkscape:connector-curvature="0" />
</svg>
